<svg xmlns="http://www.w3.org/2000/svg" viewBox="0 0 130.13 147.51"><g id="Layer_2" data-name="Layer 2"><g id="Layer_1-2" data-name="Layer 1"><path d="M73.24,147.32c-15.67,0-31.33,0-47,0-7,0-10.41-3.82-9.85-10.68,2.2-27,19.77-47.19,46-52.94,29.84-6.53,61.42,14.88,66.7,45.09,2.5,14.36,1.53,19.4-15.37,18.67C100.25,146.85,86.74,147.32,73.24,147.32Z"/><circle cx="73.23" cy="33" r="33"/><polygon points="14.64 52.16 19.16 61.32 29.28 62.79 21.96 69.93 23.68 80 14.64 75.24 5.59 80 7.32 69.93 0 62.79 10.12 61.32 14.64 52.16"/></g></g></svg>