<svg id="Layer_1" data-name="Layer 1" xmlns="http://www.w3.org/2000/svg" xmlns:xlink="http://www.w3.org/1999/xlink" viewBox="0 0 419 442.4"><defs><style>.cls-1{fill:url(#linear-gradient);}.cls-2{fill:#0271b2;}</style><linearGradient id="linear-gradient" x1="0.85" y1="977.21" x2="2170.4" y2="977.21" gradientTransform="translate(0 -756)" gradientUnits="userSpaceOnUse"><stop offset="0" stop-color="#0171b2"/><stop offset="0.08" stop-color="#0182bb"/><stop offset="0.19" stop-color="#0094c4"/><stop offset="0.31" stop-color="#009fc9"/><stop offset="0.45" stop-color="#00a3cb"/></linearGradient></defs><g id="Layer_4" data-name="Layer 4"><path class="cls-1" d="M220.8,441.4C99.5,441.4.9,342.2.9,220.9S99.5,1,220.8,1A219.3,219.3,0,0,1,368.2,57.3a34.2,34.2,0,0,1,3.1,48.4h0l-.8.8c-12.7,13.9-34.8,15.1-48.7,2.3-61.8-55.6-157-50.7-212.6,11A150.5,150.5,0,0,0,220.8,371.2c38.2,0,74.8-13.9,102.7-40,13.9-13.3,36-12.2,49.3,1.7a35.4,35.4,0,0,1-1.8,49.4C329.9,419.9,276.5,441.4,220.8,441.4Z"/></g><g id="Layer_3" data-name="Layer 3"><circle class="cls-2" cx="163.3" cy="186.5" r="36.2"/></g><g id="Layer_2" data-name="Layer 2"><circle class="cls-2" cx="297.5" cy="182.1" r="36.2"/></g></svg>