<svg width="20" height="20" viewBox="0 0 20 20" fill="none" xmlns="http://www.w3.org/2000/svg">
<path d="M13.9234 18.8662V17.5986H8.83946V12.6151C8.40518 12.5287 7.97089 12.5 7.51095 12.5C3.34685 12.4998 0 15.6397 0 19.5H14C13.949 19.327 13.9236 19.0967 13.9236 18.8663L13.9234 18.8662Z" fill="white"/>
<path d="M13 5.5001C13 8.26153 10.7614 10.5 8 10.5C5.23863 10.5 3 8.26153 3 5.5001C3 2.73847 5.23863 0.5 8 0.5C10.7614 0.5 13 2.73847 13 5.5001Z" fill="white"/>
<path d="M15.6126 19.5C15.7444 19.5 15.9025 19.4194 16.0868 19.2582L19.6443 15.8463C20.1186 15.3896 20.1186 14.6642 19.6443 14.2075L16.1133 10.7687C15.9288 10.6076 15.7707 10.5 15.6391 10.5C15.4283 10.5 15.2702 10.7149 15.2702 11.1179V13.5089L10 13.5091V16.5179H15.2439V18.909C15.2437 19.2851 15.4019 19.5 15.6126 19.5L15.6126 19.5Z" fill="white"/>
</svg>
