<svg width="17" height="16" viewBox="0 0 17 16" fill="none" xmlns="http://www.w3.org/2000/svg">
<mask id="path-1-inside-1_1287_531" fill="white">
<path d="M15.5 3H14.6667V2.16667C14.6667 1.94565 14.5789 1.73369 14.4226 1.57741C14.2663 1.42113 14.0543 1.33333 13.8333 1.33333C13.6123 1.33333 13.4004 1.42113 13.2441 1.57741C13.0878 1.73369 13 1.94565 13 2.16667V3H12.1667C11.9457 3 11.7337 3.0878 11.5774 3.24408C11.4211 3.40036 11.3333 3.61232 11.3333 3.83334C11.3333 4.05435 11.4211 4.26631 11.5774 4.42259C11.7337 4.57887 11.9457 4.66667 12.1667 4.66667H13V5.5C13 5.72102 13.0878 5.93298 13.2441 6.08926C13.4004 6.24554 13.6123 6.33334 13.8333 6.33334C14.0543 6.33334 14.2663 6.24554 14.4226 6.08926C14.5789 5.93298 14.6667 5.72102 14.6667 5.5V4.66667H15.5C15.721 4.66667 15.933 4.57887 16.0893 4.42259C16.2455 4.26631 16.3333 4.05435 16.3333 3.83334C16.3333 3.61232 16.2455 3.40036 16.0893 3.24408C15.933 3.0878 15.721 3 15.5 3ZM6.33333 7.16667C6.9926 7.16667 7.63707 6.97117 8.18523 6.6049C8.7334 6.23863 9.16064 5.71803 9.41293 5.10895C9.66523 4.49986 9.73124 3.82964 9.60262 3.18303C9.474 2.53643 9.15653 1.94249 8.69036 1.47631C8.22418 1.01014 7.63024 0.692668 6.98363 0.564051C6.33703 0.435433 5.66681 0.501444 5.05772 0.753736C4.44863 1.00603 3.92804 1.43327 3.56177 1.98143C3.1955 2.5296 3 3.17406 3 3.83334C3 4.71739 3.35119 5.56524 3.97631 6.19036C4.60143 6.81548 5.44928 7.16667 6.33333 7.16667ZM11.3333 15.5C11.5543 15.5 11.7663 15.4122 11.9226 15.2559C12.0789 15.0996 12.1667 14.8877 12.1667 14.6667C12.1667 13.1196 11.5521 11.6358 10.4581 10.5419C9.36416 9.44792 7.88043 8.83333 6.33333 8.83333C4.78624 8.83333 3.30251 9.44792 2.20854 10.5419C1.11458 11.6358 0.5 13.1196 0.5 14.6667C0.5 14.8877 0.587797 15.0996 0.744078 15.2559C0.900358 15.4122 1.11232 15.5 1.33333 15.5"/>
</mask>
<path d="M15.5 3H14.6667V2.16667C14.6667 1.94565 14.5789 1.73369 14.4226 1.57741C14.2663 1.42113 14.0543 1.33333 13.8333 1.33333C13.6123 1.33333 13.4004 1.42113 13.2441 1.57741C13.0878 1.73369 13 1.94565 13 2.16667V3H12.1667C11.9457 3 11.7337 3.0878 11.5774 3.24408C11.4211 3.40036 11.3333 3.61232 11.3333 3.83334C11.3333 4.05435 11.4211 4.26631 11.5774 4.42259C11.7337 4.57887 11.9457 4.66667 12.1667 4.66667H13V5.5C13 5.72102 13.0878 5.93298 13.2441 6.08926C13.4004 6.24554 13.6123 6.33334 13.8333 6.33334C14.0543 6.33334 14.2663 6.24554 14.4226 6.08926C14.5789 5.93298 14.6667 5.72102 14.6667 5.5V4.66667H15.5C15.721 4.66667 15.933 4.57887 16.0893 4.42259C16.2455 4.26631 16.3333 4.05435 16.3333 3.83334C16.3333 3.61232 16.2455 3.40036 16.0893 3.24408C15.933 3.0878 15.721 3 15.5 3ZM6.33333 7.16667C6.9926 7.16667 7.63707 6.97117 8.18523 6.6049C8.7334 6.23863 9.16064 5.71803 9.41293 5.10895C9.66523 4.49986 9.73124 3.82964 9.60262 3.18303C9.474 2.53643 9.15653 1.94249 8.69036 1.47631C8.22418 1.01014 7.63024 0.692668 6.98363 0.564051C6.33703 0.435433 5.66681 0.501444 5.05772 0.753736C4.44863 1.00603 3.92804 1.43327 3.56177 1.98143C3.1955 2.5296 3 3.17406 3 3.83334C3 4.71739 3.35119 5.56524 3.97631 6.19036C4.60143 6.81548 5.44928 7.16667 6.33333 7.16667ZM11.3333 15.5C11.5543 15.5 11.7663 15.4122 11.9226 15.2559C12.0789 15.0996 12.1667 14.8877 12.1667 14.6667C12.1667 13.1196 11.5521 11.6358 10.4581 10.5419C9.36416 9.44792 7.88043 8.83333 6.33333 8.83333C4.78624 8.83333 3.30251 9.44792 2.20854 10.5419C1.11458 11.6358 0.5 13.1196 0.5 14.6667C0.5 14.8877 0.587797 15.0996 0.744078 15.2559C0.900358 15.4122 1.11232 15.5 1.33333 15.5" fill="url(#paint0_linear_1287_531)"/>
<path d="M14.6667 3H13.6667V4H14.6667V3ZM13.8333 1.33333V0.333335V1.33333ZM13 3V4H14V3H13ZM13 4.66667H14V3.66667H13V4.66667ZM14.6667 4.66667V3.66667H13.6667V4.66667H14.6667ZM3 3.83334H2H3ZM12.1667 14.6667H13.1667H12.1667ZM0.5 14.6667H-0.5H0.5ZM15.5 2H14.6667V4H15.5V2ZM15.6667 3V2.16667H13.6667V3H15.6667ZM15.6667 2.16667C15.6667 1.68044 15.4735 1.21412 15.1297 0.870306L13.7155 2.28452C13.6842 2.25326 13.6667 2.21087 13.6667 2.16667H15.6667ZM15.1297 0.870306C14.7859 0.526489 14.3196 0.333335 13.8333 0.333335V2.33333C13.7891 2.33333 13.7467 2.31578 13.7155 2.28452L15.1297 0.870306ZM13.8333 0.333335C13.3471 0.333335 12.8808 0.526489 12.537 0.870306L13.9512 2.28452C13.9199 2.31578 13.8775 2.33333 13.8333 2.33333V0.333335ZM12.537 0.870306C12.1932 1.21412 12 1.68044 12 2.16667H14C14 2.21087 13.9824 2.25326 13.9512 2.28452L12.537 0.870306ZM12 2.16667V3H14V2.16667H12ZM13 2H12.1667V4H13V2ZM12.1667 2C11.6804 2 11.2141 2.19316 10.8703 2.53697L12.2845 3.95119C12.2533 3.98244 12.2109 4 12.1667 4V2ZM10.8703 2.53697C10.5265 2.88079 10.3333 3.34711 10.3333 3.83334H12.3333C12.3333 3.87754 12.3158 3.91993 12.2845 3.95119L10.8703 2.53697ZM10.3333 3.83334C10.3333 4.31956 10.5265 4.78588 10.8703 5.1297L12.2845 3.71548C12.3158 3.74674 12.3333 3.78913 12.3333 3.83334H10.3333ZM10.8703 5.1297C11.2141 5.47351 11.6804 5.66667 12.1667 5.66667V3.66667C12.2109 3.66667 12.2533 3.68423 12.2845 3.71548L10.8703 5.1297ZM12.1667 5.66667H13V3.66667H12.1667V5.66667ZM12 4.66667V5.5H14V4.66667H12ZM12 5.5C12 5.98623 12.1932 6.45255 12.537 6.79636L13.9512 5.38215C13.9824 5.41341 14 5.4558 14 5.5H12ZM12.537 6.79636C12.8808 7.14018 13.3471 7.33334 13.8333 7.33334V5.33334C13.8775 5.33334 13.9199 5.35089 13.9512 5.38215L12.537 6.79636ZM13.8333 7.33334C14.3196 7.33334 14.7859 7.14018 15.1297 6.79636L13.7155 5.38215C13.7467 5.35089 13.7891 5.33334 13.8333 5.33334V7.33334ZM15.1297 6.79636C15.4735 6.45255 15.6667 5.98623 15.6667 5.5H13.6667C13.6667 5.4558 13.6842 5.41341 13.7155 5.38215L15.1297 6.79636ZM15.6667 5.5V4.66667H13.6667V5.5H15.6667ZM14.6667 5.66667H15.5V3.66667H14.6667V5.66667ZM15.5 5.66667C15.9862 5.66667 16.4525 5.47351 16.7964 5.1297L15.3822 3.71548C15.4134 3.68423 15.4558 3.66667 15.5 3.66667V5.66667ZM16.7964 5.1297C17.1402 4.78588 17.3333 4.31956 17.3333 3.83334H15.3333C15.3333 3.78913 15.3509 3.74674 15.3822 3.71548L16.7964 5.1297ZM17.3333 3.83334C17.3333 3.34711 17.1402 2.88079 16.7964 2.53697L15.3822 3.95119C15.3509 3.91993 15.3333 3.87754 15.3333 3.83334H17.3333ZM16.7964 2.53697C16.4525 2.19316 15.9862 2 15.5 2V4C15.4558 4 15.4134 3.98244 15.3822 3.95119L16.7964 2.53697ZM6.33333 8.16667C7.19039 8.16667 8.02819 7.91252 8.7408 7.43637L7.62966 5.77343C7.24595 6.02982 6.79482 6.16667 6.33333 6.16667V8.16667ZM8.7408 7.43637C9.45342 6.96022 10.0088 6.28344 10.3368 5.49163L8.48905 4.72626C8.31245 5.15262 8.01338 5.51704 7.62966 5.77343L8.7408 7.43637ZM10.3368 5.49163C10.6648 4.69982 10.7506 3.82853 10.5834 2.98794L8.62183 3.37812C8.71187 3.83075 8.66566 4.2999 8.48905 4.72626L10.3368 5.49163ZM10.5834 2.98794C10.4162 2.14736 10.0035 1.37523 9.39746 0.769205L7.98325 2.18342C8.30957 2.50974 8.5318 2.9255 8.62183 3.37812L10.5834 2.98794ZM9.39746 0.769205C8.79144 0.163177 8.01931 -0.249532 7.17872 -0.416735L6.78854 1.54484C7.24117 1.63487 7.65693 1.8571 7.98325 2.18342L9.39746 0.769205ZM7.17872 -0.416735C6.33814 -0.583937 5.46685 -0.498123 4.67504 -0.170143L5.44041 1.67762C5.86677 1.50101 6.33592 1.4548 6.78854 1.54484L7.17872 -0.416735ZM4.67504 -0.170143C3.88323 0.157837 3.20645 0.713251 2.7303 1.42586L4.39324 2.537C4.64963 2.15329 5.01404 1.85422 5.44041 1.67762L4.67504 -0.170143ZM2.7303 1.42586C2.25415 2.13848 2 2.97628 2 3.83334H4C4 3.37185 4.13685 2.92072 4.39324 2.537L2.7303 1.42586ZM2 3.83334C2 4.98261 2.45655 6.08481 3.2692 6.89746L4.68342 5.48325C4.24583 5.04567 4 4.45217 4 3.83334H2ZM3.2692 6.89746C4.08186 7.71012 5.18406 8.16667 6.33333 8.16667V6.16667C5.71449 6.16667 5.121 5.92084 4.68342 5.48325L3.2692 6.89746ZM11.3333 16.5C11.8196 16.5 12.2859 16.3069 12.6297 15.963L11.2155 14.5488C11.2467 14.5176 11.2891 14.5 11.3333 14.5V16.5ZM12.6297 15.963C12.9735 15.6192 13.1667 15.1529 13.1667 14.6667H11.1667C11.1667 14.6225 11.1842 14.5801 11.2155 14.5488L12.6297 15.963ZM13.1667 14.6667C13.1667 12.8544 12.4467 11.1163 11.1652 9.83477L9.75102 11.249C10.6574 12.1554 11.1667 13.3848 11.1667 14.6667H13.1667ZM11.1652 9.83477C9.88373 8.55327 8.14565 7.83334 6.33333 7.83334V9.83333C7.61521 9.83333 8.84459 10.3426 9.75102 11.249L11.1652 9.83477ZM6.33333 7.83334C4.52102 7.83334 2.78294 8.55327 1.50144 9.83477L2.91565 11.249C3.82208 10.3426 5.05145 9.83333 6.33333 9.83333V7.83334ZM1.50144 9.83477C0.219938 11.1163 -0.5 12.8544 -0.5 14.6667H1.5C1.5 13.3848 2.00922 12.1554 2.91565 11.249L1.50144 9.83477ZM-0.5 14.6667C-0.5 15.1529 -0.306846 15.6192 0.0369709 15.963L1.45118 14.5488C1.48244 14.5801 1.5 14.6225 1.5 14.6667H-0.5ZM0.0369709 15.963C0.380789 16.3069 0.847105 16.5 1.33333 16.5V14.5C1.37753 14.5 1.41993 14.5176 1.45118 14.5488L0.0369709 15.963Z" fill="white" mask="url(#path-1-inside-1_1287_531)"/>
<defs>
<linearGradient id="paint0_linear_1287_531" x1="-0.526234" y1="0.983333" x2="11.7666" y2="20.5032" gradientUnits="userSpaceOnUse">
<stop stop-color="#0070B2"/>
<stop offset="0.128" stop-color="#0079B6"/>
<stop offset="0.341" stop-color="#0092C3"/>
<stop offset="0.776047" stop-color="#00A3CB"/>
</linearGradient>
</defs>
</svg>
