<svg xmlns="http://www.w3.org/2000/svg" viewBox="0 0 465.27 465.29"><defs><style>.cls-1{fill:#231f20;}</style></defs><g id="Layer_2" data-name="Layer 2"><g id="Layer_1-2" data-name="Layer 1"><path class="cls-1" d="M464.83,18.52a23.43,23.43,0,0,0-18-18,22.86,22.86,0,0,0-13.14,1.16L14.73,164.46a24.32,24.32,0,0,0-10.82,8.66A22.65,22.65,0,0,0,0,186.26a23.13,23.13,0,0,0,4,13.13,22.83,22.83,0,0,0,11,8.52L191.28,274l66.11,176.26a23.09,23.09,0,0,0,21.66,15h.14a22.78,22.78,0,0,0,13.14-4,23.88,23.88,0,0,0,8.51-10.68L463.68,31.65A24.06,24.06,0,0,0,464.83,18.52ZM279.48,376.8,237.76,265.36l61.06-61.06a23.25,23.25,0,0,0,0-32.91,23.33,23.33,0,0,0-32.91,0l-58.75,58.75L88.36,185.82,401.17,64.13Z"/></g></g></svg>